<svg xmlns="http://www.w3.org/2000/svg" viewBox="0 0 249.37 295.98">
  <defs>
    <style>
      .cls-1 {
        fill: #ff931e;
      }

      .cls-2 {
        fill: #fff;
      }
    </style>
  </defs>
  <g id="Layer_2" data-name="Layer 2">
    <g id="Layer_1-2" data-name="Layer 1">
      <path class="cls-1" d="M212.86,36.52A124.69,124.69,0,0,0,36.52,212.85l79.56,79.57a12.17,12.17,0,0,0,17.21,0l79.57-79.57A124.69,124.69,0,0,0,212.86,36.52Z"/>
      <path class="cls-2" d="M190.91,192.15a93.66,93.66,0,1,1,0-132.45A93.66,93.66,0,0,1,190.91,192.15Z"/>
      <g>
        <path class="cls-1" d="M151.33,77l-53.9-.1,3.43-5.54a9.64,9.64,0,0,1,8.26-4.58l30.47,0a9.7,9.7,0,0,1,8.26,4.63L151.33,77Z"/>
        <rect x="75.62" y="87.14" width="11.84" height="1.66"/>
        <path d="M124.33,88.8A40.25,40.25,0,1,0,164.57,129,40.27,40.27,0,0,0,124.33,88.8Zm0,74.8a34.51,34.51,0,1,1,34.5-34.51A34.49,34.49,0,0,1,124.33,163.6Z"/>
        <path class="cls-1" d="M106.75,171H67.82a6.3,6.3,0,0,1-6.3-6.3V93.43a6.3,6.3,0,0,1,6.3-6.29h7.85V88.8H87.51V87.14H106.7a45.47,45.47,0,0,0,0,83.86Z"/>
        <path class="cls-1" d="M187.19,93.43V164.7a6.3,6.3,0,0,1-6.3,6.3H142a45.47,45.47,0,0,0,0-83.81h0a45.67,45.67,0,0,0-35.21,0H91.09l3.67-5.9,59.13.11,3.63,5.89h23.32A6.09,6.09,0,0,1,187.19,93.43Z"/>
        <path class="cls-1" d="M87.46,84.27V88.8H75.62V84.27a3.09,3.09,0,0,1,3.07-3.08h5.75A3.08,3.08,0,0,1,87.46,84.27Z"/>
        <path class="cls-1" d="M124.33,88.8A40.25,40.25,0,1,0,164.57,129,40.27,40.27,0,0,0,124.33,88.8Zm0,74.8a34.51,34.51,0,1,1,34.5-34.51A34.49,34.49,0,0,1,124.33,163.6Z"/>
      </g>
    </g>
  </g>
</svg>
