<svg xmlns="http://www.w3.org/2000/svg" viewBox="0 0 995.18 341.03">
  <defs>
    <style>
      .cls-1 {
        fill: #fff;
      }
    </style>
  </defs>
  <g id="Layer_2" data-name="Layer 2">
    <g id="Layer_1-2" data-name="Layer 1">
      <g>
        <path class="cls-1" d="M17.84,339.48c.7.52,1.4,1,2.11,1.55a16.55,16.55,0,0,1,1.24-3.14c4-6.24,7.6-12.8,12.19-18.58,21.35-26.88,45.67-50.6,75-68.83,25.16-15.64,52.31-25.53,82-27.35,32.87-2,63.8,5.7,93.09,20.26,25.19,12.53,47.82,28.54,66.14,50.17a17.15,17.15,0,0,0,2.45,2l1.19-.71c-.59-1.4-.9-3-1.82-4.16-11.37-14.08-22.43-28.43-34.34-42-17.77-20.29-38.07-37.64-62.31-50-23-11.72-47.29-16.5-73-12.6-22.89,3.48-43.08,13.39-61.69,26.7-29.35,21-52.69,47.75-72.8,77.38-9.85,14.52-18.85,29.61-28.13,44.51C18.34,336,18.27,337.87,17.84,339.48ZM445.61,34l-.28-2a18.09,18.09,0,0,0-4.26.34c-4.72,1.56-9.34,3.43-14.06,5C392.35,48.74,358.33,61.64,326.7,80.12c-16,9.34-31.36,19.57-43.35,34-10.37,12.49-16.93,26.28-13.61,43.1,2.44,12.35,9.24,22.32,17.74,31.21a162.19,162.19,0,0,0,39,30.07C341.89,227,357.65,235,373.34,243c4.86,2.49,10,4.45,15,6.65l.88-1.37a13.63,13.63,0,0,0-2.44-2.37c-3.32-1.86-6.75-3.51-10.09-5.32-22-11.88-41-27.24-55.25-47.92-14-20.35-18.21-42.28-7.75-65.58,7.18-16,18.87-28.48,32.31-39.39C373.89,65,405.56,49.07,438.86,36.08,441.05,35.22,443.36,34.66,445.61,34ZM189.64.13,188,0c-3.48,14.39-7.23,28.73-10.36,43.2a69.18,69.18,0,0,0,.14,31.16c2.73,11.32,9.89,18.19,21,20.87,10.3,2.47,20.5.94,30.6-1.51,24-5.81,46.06-16.39,67-28.89C326.33,47,355.35,27.62,384.74,8.88c.33-.21.45-.75,1.13-2a32.08,32.08,0,0,0-4.13,1.73c-5.92,3.67-11.6,7.77-17.72,11.06-26.23,14.11-53.17,26.69-81.81,35.18-18.4,5.46-37,9.4-56.5,6.52-20.13-3-34-18.74-34-36.39C191.65,16.72,190.36,8.42,189.64.13ZM29,85l.1,1.06a52.92,52.92,0,0,1,7-.62c11.91.51,23.84.77,35.69,1.88,12.65,1.18,25,4.1,36.29,10.23,11,6,18.57,14.56,18.41,27.51a53,53,0,0,1-4.19,18.77c-8.11,19.94-21.93,36.07-36.87,51.07C61.73,218.6,37,241.06,9,259.7,6,261.75,3,264,0,266.13l.76,1.3c2.59-1.31,5.41-2.3,7.74-4,11-7.89,22.1-15.73,32.83-24,19-14.62,38.06-29.12,56.43-44.47,19.68-16.44,38.65-33.86,52.91-55.43,5-7.62,9.39-16.33,11.39-25.15,2.51-11.06.1-18.51-10.16-23.92-3.8-2-7.75-4.31-11.89-5-12.4-2.12-24.95-5-37.41-4.88-22.7.23-45.37,2.4-68.06,3.79C32.67,84.49,30.81,84.79,29,85ZM456.89,198.1l.08-.38c4-.23,8-.31,12-.71,19.52-1.94,32.64-12.48,36.53-29.41a90.62,90.62,0,0,0,1.31-33.71c-2.72-18.44-11.25-27.81-29.4-31.89a84.46,84.46,0,0,0-39.58.47c-15.85,4-26.21,13.72-28.44,30.28a156.15,156.15,0,0,0-1.47,28.32c.87,18.17,11.12,30,28.82,34.09C443.3,196.69,450.15,197.15,456.89,198.1Zm303.27-68.35c.66,1.93,1.16,3.49,1.73,5q9.42,25.47,18.87,50.93c3.83,10.32,3.84,10.13,14.72,10.34,3.67.08,5.21-1.31,6.44-4.49,5.06-13,10.32-25.93,15.58-38.86a61.92,61.92,0,0,1,3.37-6.06c1,2.12,1.48,3.1,1.87,4.14,4.28,11.52,8.52,23.06,12.81,34.58,4.06,10.9,4.07,10.8,16,10.65,2.79,0,4.05-.93,5-3.54,5.87-15.9,11.93-31.73,17.93-47.57,1.91-5.06,3.82-10.12,5.84-15.44H867.7c-6.62,16.63-11.4,33.81-18.59,50.23-1.46-.83-1.91-.93-2-1.16C841,162.2,835,145.87,828.85,129.26a64.74,64.74,0,0,1-8.48-.07c-3.88-.51-5.48,1.23-6.8,4.66-5.28,13.81-10.83,27.51-16.36,41.22a57.14,57.14,0,0,1-3.42,6c-1.46-3.06-2.54-4.85-3.21-6.79-3.72-10.84-7.35-21.72-11-32.58-4.46-13.29-4.45-13.29-18.42-12.25A6.59,6.59,0,0,0,760.16,129.75Zm-146.29,5.73V102.11H599c-.17,2.32-.43,4.29-.43,6.26q.09,33.69.24,67.38c0,5.49-.16,11,.15,16.47.08,1.27,1.68,3.38,2.77,3.5,3.72.44,7.53.17,11.74.17v-6c0-13-.14-26,.15-38.94,0-2.51,1.12-6.37,2.88-7.22a70.09,70.09,0,0,1,17.61-6.16c11.55-2.12,17.5,3.13,17.62,14.72.13,12.65,0,25.3,0,38,0,1.77.16,3.54.26,5.62,3.66,0,6.81-.15,9.94,0,3.5.21,4.59-1.25,4.55-4.68-.15-14.31,0-28.62-.1-42.93-.16-14.85-9.42-18.84-21.88-21.06-7.35-1.31-15.19-.7-21.91,4.09C620.47,132.86,617.82,133.64,613.87,135.48Zm86.12,15c1.64-9.78,5.61-13.63,14.79-14.73a38.55,38.55,0,0,1,6-.24c11,.43,14.76,4.59,14.66,15.59,0,3.39-1.23,4.83-4.56,5a99.85,99.85,0,0,0-13.42,1.16c-8,1.48-16.09,2.69-23.62,5.45-6.86,2.53-10.6,8.68-10.14,16.25.48,8,4.64,14.27,12.54,16.17a55.67,55.67,0,0,0,19.12,1.17c6.41-.75,12.59-3.5,18.88-5.37,3.58,5.28,10.16,6.73,17.86,4.47-.83-3.62-2.24-7.11-2.33-10.64-.31-13.13-.13-26.27-.27-39.4-.08-7.29-3.67-12.52-10.6-14.67-13.76-4.28-27.54-4.05-41,1.51-5.07,2.09-9,5.57-10.65,11.15-1.93,6.64-1.21,7.55,5.52,7.17C695.08,150.37,697.4,150.48,700,150.48Zm201.39,0c2.24-10.5,6.69-14.31,16.9-14.91a38.51,38.51,0,0,1,6,.11c8.83.86,11.92,4.07,12.6,13,.51,6.6,0,6.79-6.47,7.61-10.84,1.38-21.82,2.51-32.38,5.2-8.87,2.27-13.29,9.87-12.8,18s6.27,14.65,15.35,16.71c10.66,2.42,20.75.37,30.59-4,1.49-.65,4.16-.9,5.15,0,4.88,4.25,10.79,5.26,16,2.45-.38-3.81-1-7.38-1-11-.14-12.48,0-25-.13-37.43-.06-6.44-2.32-12.23-8.6-14.55-15.65-5.8-31.34-5.69-46.3,2.34-6.58,3.53-8.89,9.61-7.34,16.47ZM534,175.47H520c-.52,7.92,2.45,15.08,8,17.26,14.59,5.8,29.46,6.56,44.21.55,6.5-2.65,10.71-7.82,10.91-14.85.14-5,1.05-11.54-4.79-14.11-7.69-3.38-15.94-5.49-23.94-8.17-4.87-1.63-10-2.81-14.52-5.09-5.37-2.7-5.74-7.82-1.29-11.8,6.4-5.73,14-4.37,21.33-2.84,5.73,1.2,8.1,5.78,8,11.4h13.65c0-8.3-3.74-13.69-10.9-16.64-9.37-3.87-19.19-4.23-28.93-2.21a34.86,34.86,0,0,0-13.16,5.45c-9.77,7.07-8.55,20.82,2.15,26.25,4.09,2.08,8.72,3.13,13.16,4.5,6.65,2.06,13.56,3.47,19.9,6.23,2.34,1,4.11,4.88,4.8,7.77a6.61,6.61,0,0,1-5.09,8.08,55.07,55.07,0,0,1-15.59,1.87C538.46,188.58,535.27,185,534,175.47Zm461.16-33c0-10-5.16-15.38-14.78-15.36-7.08,0-13.23,6.81-13.16,14.56.08,9.89,4.27,14.73,12.67,14.62C988.76,156.14,995.2,150.32,995.18,142.43Z"/>
        <path class="cls-1" d="M17.84,339.48c.43-1.61.5-3.44,1.34-4.79,9.28-14.9,18.28-30,28.13-44.51,20.11-29.63,43.45-56.39,72.8-77.38,18.61-13.31,38.8-23.22,61.69-26.7,25.7-3.9,50,.88,73,12.6,24.24,12.33,44.54,29.68,62.31,50,11.91,13.6,23,28,34.34,42,.92,1.14,1.23,2.76,1.82,4.16l-1.19.71a17.15,17.15,0,0,1-2.45-2c-18.32-21.63-40.95-37.64-66.14-50.17-29.29-14.56-60.22-22.27-93.09-20.26-29.69,1.82-56.84,11.71-82,27.35-29.34,18.23-53.66,42-75,68.83-4.59,5.78-8.19,12.34-12.19,18.58A16.55,16.55,0,0,0,20,341C19.24,340.52,18.54,340,17.84,339.48Z"/>
        <path class="cls-1" d="M445.61,34c-2.25.7-4.56,1.26-6.75,2.12-33.3,13-65,28.93-92.88,51.58-13.44,10.91-25.13,23.4-32.31,39.39-10.46,23.3-6.23,45.23,7.75,65.58,14.21,20.68,33.28,36,55.25,47.92,3.34,1.81,6.77,3.46,10.09,5.32a13.63,13.63,0,0,1,2.44,2.37l-.88,1.37c-5-2.2-10.12-4.16-15-6.65-15.69-8-31.45-15.93-46.88-24.44a162.19,162.19,0,0,1-39-30.07c-8.5-8.89-15.3-18.86-17.74-31.21-3.32-16.82,3.24-30.61,13.61-43.1,12-14.45,27.36-24.68,43.35-34C358.33,61.64,392.35,48.74,427,37.33c4.72-1.55,9.34-3.42,14.06-5a18.09,18.09,0,0,1,4.26-.34Z"/>
        <path class="cls-1" d="M189.64.13c.72,8.29,2,16.59,2,24.89.06,17.65,13.91,33.41,34,36.39,19.46,2.88,38.1-1.06,56.5-6.52C310.85,46.4,337.79,33.82,364,19.71c6.12-3.29,11.8-7.39,17.72-11.06a32.08,32.08,0,0,1,4.13-1.73c-.68,1.21-.8,1.75-1.13,2-29.39,18.74-58.41,38.08-88.32,56-20.92,12.5-43,23.08-67,28.89-10.1,2.45-20.3,4-30.6,1.51-11.14-2.68-18.3-9.55-21-20.87a69.18,69.18,0,0,1-.14-31.16C180.8,28.73,184.55,14.39,188,0Z"/>
        <path class="cls-1" d="M29,85c1.86-.21,3.72-.51,5.59-.63C57.23,83,79.9,80.81,102.6,80.58c12.46-.13,25,2.76,37.41,4.88,4.14.71,8.09,3,11.89,5,10.26,5.41,12.67,12.86,10.16,23.92-2,8.82-6.36,17.53-11.39,25.15-14.26,21.57-33.23,39-52.91,55.43-18.37,15.35-37.46,29.85-56.43,44.47-10.73,8.28-21.8,16.12-32.83,24-2.33,1.67-5.15,2.66-7.74,4L0,266.13c3-2.15,6-4.38,9-6.43,28-18.64,52.69-41.1,76.29-64.8,14.94-15,28.76-31.13,36.87-51.07a53,53,0,0,0,4.19-18.77c.16-13-7.41-21.56-18.41-27.51-11.34-6.13-23.64-9-36.29-10.23C59.84,86.21,47.91,86,36,85.44a52.92,52.92,0,0,0-6.95.62Z"/>
        <path class="cls-1" d="M456.89,198.1c-6.74-.95-13.59-1.41-20.19-2.94-17.7-4.09-27.95-15.92-28.82-34.09a156.15,156.15,0,0,1,1.47-28.32c2.23-16.56,12.59-26.29,28.44-30.28a84.46,84.46,0,0,1,39.58-.47c18.15,4.08,26.68,13.45,29.4,31.89a90.62,90.62,0,0,1-1.31,33.71c-3.89,16.93-17,27.47-36.53,29.41-4,.4-8,.48-12,.71Zm34.26-51.88-.77-.07c0-3.15.22-6.32,0-9.46-1.36-17.12-9.31-26.24-25.42-28a60.76,60.76,0,0,0-18.28,1c-9.5,1.88-16.12,7.88-18.82,17.3a80.36,80.36,0,0,0-.79,43.29c2.51,9.56,8.81,15.72,18.3,17.74,10.28,2.19,20.26,2.53,30.19-3.49,7.4-4.48,11.83-9.93,13.13-18.1C489.72,159.73,490.33,153,491.15,146.22Z"/>
        <path class="cls-1" d="M760.16,129.75a6.59,6.59,0,0,1,1-.31c14-1,14-1,18.42,12.25,3.65,10.86,7.28,21.74,11,32.58.67,1.94,1.75,3.73,3.21,6.79a57.14,57.14,0,0,0,3.42-6c5.53-13.71,11.08-27.41,16.36-41.22,1.32-3.43,2.92-5.17,6.8-4.66a64.74,64.74,0,0,0,8.48.07C835,145.87,841,162.2,847.12,178.52c.08.23.53.33,2,1.16,7.19-16.42,12-33.6,18.59-50.23h12.63c-2,5.32-3.93,10.38-5.84,15.44-6,15.84-12.06,31.67-17.93,47.57-1,2.61-2.22,3.51-5,3.54-11.93.15-11.94.25-16-10.65-4.29-11.52-8.53-23.06-12.81-34.58-.39-1-.91-2-1.87-4.14a61.92,61.92,0,0,0-3.37,6.06c-5.26,12.93-10.52,25.86-15.58,38.86-1.23,3.18-2.77,4.57-6.44,4.49-10.88-.21-10.89,0-14.72-10.34q-9.45-25.45-18.87-50.93C761.32,133.24,760.82,131.68,760.16,129.75Z"/>
        <path class="cls-1" d="M613.87,135.48c4-1.84,6.6-2.62,8.72-4.13,6.72-4.79,14.56-5.4,21.91-4.09,12.46,2.22,21.72,6.21,21.88,21.06.15,14.31,0,28.62.1,42.93,0,3.43-1.05,4.89-4.55,4.68-3.13-.19-6.28,0-9.94,0-.1-2.08-.25-3.85-.26-5.62,0-12.65.09-25.3,0-38-.12-11.59-6.07-16.84-17.62-14.72a70.09,70.09,0,0,0-17.61,6.16c-1.76.85-2.83,4.71-2.88,7.22-.29,13-.14,26-.15,38.94v6c-4.21,0-8,.27-11.74-.17-1.09-.12-2.69-2.23-2.77-3.5-.31-5.47-.13-11-.15-16.47q-.13-33.69-.24-67.38c0-2,.26-3.94.43-6.26h14.91Z"/>
        <path class="cls-1" d="M700,150.48c-2.59,0-4.91-.11-7.21,0-6.73.38-7.45-.53-5.52-7.17,1.62-5.58,5.58-9.06,10.65-11.15,13.43-5.56,27.21-5.79,41-1.51,6.93,2.15,10.52,7.38,10.6,14.67.14,13.13,0,26.27.27,39.4.09,3.53,1.5,7,2.33,10.64-7.7,2.26-14.28.81-17.87-4.47-6.28,1.87-12.46,4.62-18.87,5.37a55.67,55.67,0,0,1-19.12-1.17c-7.9-1.9-12.06-8.14-12.54-16.17-.46-7.57,3.28-13.72,10.14-16.25,7.53-2.76,15.67-4,23.62-5.45a99.85,99.85,0,0,1,13.42-1.16c3.33-.16,4.53-1.6,4.56-5,.1-11-3.65-15.16-14.66-15.59a38.55,38.55,0,0,0-6,.24C705.6,136.85,701.63,140.7,700,150.48Zm35.37,21.11c0-10.13,1-10.07-8.44-8.7-1.32.19-2.69,0-4,.33-5.81,1.29-11.93,1.91-17.31,4.24a10.77,10.77,0,0,0-1.61,19c7.67,4.86,15.61,3.35,23.34-.16C734.15,183.27,736,177.57,735.36,171.59Z"/>
        <path class="cls-1" d="M901.38,150.46h-12.5c-1.55-6.86.76-12.94,7.34-16.47,15-8,30.65-8.14,46.3-2.34,6.28,2.32,8.54,8.11,8.6,14.55.11,12.47,0,25,.13,37.43,0,3.58.65,7.15,1,11-5.19,2.81-11.1,1.8-16-2.45-1-.86-3.66-.61-5.15,0-9.84,4.36-19.93,6.41-30.59,4-9.08-2.06-14.85-8.47-15.35-16.71s3.93-15.75,12.8-18c10.56-2.69,21.54-3.82,32.38-5.2,6.46-.82,7-1,6.47-7.61-.68-8.9-3.77-12.11-12.6-13a38.51,38.51,0,0,0-6-.11C908.07,136.15,903.62,140,901.38,150.46ZM937,169.92c0-7.95,0-7.95-7.84-7.09a38.69,38.69,0,0,0-4.46.38c-6.11,1.43-12.32,2.57-18.22,4.61-4.09,1.42-5.8,5.28-5.73,9.65.07,4.59,2.33,7.87,6.32,10A20.15,20.15,0,0,0,937,169.92Z"/>
        <path class="cls-1" d="M534,175.47c1.25,9.56,4.44,13.11,13.8,13.65a55.07,55.07,0,0,0,15.59-1.87,6.61,6.61,0,0,0,5.09-8.08c-.69-2.89-2.46-6.75-4.8-7.77-6.34-2.76-13.25-4.17-19.9-6.23-4.44-1.37-9.07-2.42-13.16-4.5-10.7-5.43-11.92-19.18-2.15-26.25A34.86,34.86,0,0,1,541.65,129c9.74-2,19.56-1.66,28.93,2.21,7.16,2.95,10.95,8.34,10.9,16.64H567.83c.12-5.62-2.25-10.2-8-11.4-7.29-1.53-14.93-2.89-21.33,2.84-4.45,4-4.08,9.1,1.29,11.8,4.55,2.28,9.65,3.46,14.52,5.09,8,2.68,16.25,4.79,23.94,8.17,5.84,2.57,4.93,9.09,4.79,14.11-.2,7-4.41,12.2-10.91,14.85-14.75,6-29.62,5.25-44.21-.55-5.51-2.18-8.48-9.34-8-17.26Z"/>
        <path class="cls-1" d="M995.18,142.43c0,7.89-6.42,13.71-15.27,13.82-8.4.11-12.59-4.73-12.67-14.62-.07-7.75,6.08-14.55,13.16-14.56C990,127.05,995.16,132.39,995.18,142.43Zm-13.26-11.32c-6.77-.11-10.63,3.66-10.83,10.56-.21,7.63,3.46,11.54,10.8,11.48,4.74,0,10.2-5.82,10.3-10.93C992.33,135.53,988.35,131.22,981.92,131.11Z"/>
        <path class="cls-1" d="M491.15,146.22c-.82,6.74-1.43,13.51-2.49,20.21-1.3,8.17-5.73,13.62-13.13,18.1-9.93,6-19.91,5.68-30.19,3.49-9.49-2-15.79-8.18-18.3-17.74a80.36,80.36,0,0,1,.79-43.29c2.7-9.42,9.32-15.42,18.82-17.3a60.76,60.76,0,0,1,18.28-1c16.11,1.78,24.06,10.9,25.42,28,.25,3.14,0,6.31,0,9.46Z"/>
        <path class="cls-1" d="M735.36,171.59c.6,6-1.21,11.68-8,14.75-7.73,3.51-15.67,5-23.34.16a10.77,10.77,0,0,1,1.61-19c5.38-2.33,11.5-3,17.31-4.24,1.28-.29,2.65-.14,4-.33C736.35,161.52,735.32,161.46,735.36,171.59Z"/>
        <path class="cls-1" d="M937,169.92A20.15,20.15,0,0,1,907,187.46c-4-2.12-6.25-5.4-6.32-10-.07-4.37,1.64-8.23,5.73-9.65,5.9-2,12.11-3.18,18.22-4.61a38.69,38.69,0,0,1,4.46-.38C937,162,937,162,937,169.92Z"/>
        <path class="cls-1" d="M981.92,131.11c6.43.11,10.41,4.42,10.27,11.11-.1,5.11-5.56,10.9-10.3,10.93-7.34.06-11-3.85-10.8-11.48C971.29,134.77,975.15,131,981.92,131.11Zm3.77,18.37c.38-.55,1-1,1-1.54,0-3.33-2.3-6.64.13-10.11.22-.32-2-3.2-3.53-3.69-2-.66-4.48-.16-6.6-.16v15.21l1.48.23c.5-2,1-4,1.49-6l1.37-.77Z"/>
        <path class="cls-1" d="M985.69,149.48l-4.67-6.8-1.37.77c-.5,2-1,4-1.49,6l-1.48-.23V134c2.12,0,4.55-.5,6.6.16,1.5.49,3.75,3.37,3.53,3.69-2.43,3.47-.12,6.78-.13,10.11C986.68,148.44,986.07,148.93,985.69,149.48Z"/>
      </g>
    </g>
  </g>
</svg>
