<svg xmlns="http://www.w3.org/2000/svg" viewBox="0 0 249.37 295.98">
  <defs>
    <style>
      .cls-1 {
        fill: #ff931e;
      }

      .cls-2 {
        fill: #fff;
      }
    </style>
  </defs>
  <g id="Layer_2" data-name="Layer 2">
    <g id="Layer_1-2" data-name="Layer 1">
      <path class="cls-1" d="M212.86,36.52A124.69,124.69,0,0,0,36.52,212.85l79.56,79.57a12.17,12.17,0,0,0,17.21,0l79.57-79.57A124.69,124.69,0,0,0,212.86,36.52Z"/>
      <path class="cls-2" d="M190.91,192.15a93.66,93.66,0,1,1,0-132.45A93.66,93.66,0,0,1,190.91,192.15Z"/>
      <g>
        <path class="cls-1" d="M103.88,101.28H89.48v58.37H78.28V101.26H67.18V94H181.49v7.13H170.82v58.48h-11.2V101.32H145.08v58.34H133.94V101.31c-.63,0-1.12-.09-1.62-.09-5.19,0-10.38,0-15.57,0-1.27,0-1.67.3-1.67,1.64q.08,27.53,0,55.06v1.75H103.88Z"/>
        <path class="cls-1" d="M61.49,90.47l14.33-8.15L99.6,68.75c8.3-4.72,16.6-9.45,24.93-14.12a2,2,0,0,1,1.61.11c5,2.85,10,5.77,15,8.66q8.64,5,17.3,10l20.33,11.78,9.14,5.3Z"/>
        <path class="cls-1" d="M177.09,162V166h4.51v4.12h4.66v8.24h-122v-8.16h4.23V166h2.41c2.5,0,2.5,0,2.51-2.58V162Z"/>
      </g>
    </g>
  </g>
</svg>
