<svg xmlns="http://www.w3.org/2000/svg" viewBox="0 0 249.37 295.98">
  <defs>
    <style>
      .cls-1, .cls-3 {
        fill: #ff931e;
      }

      .cls-2 {
        fill: #fff;
      }

      .cls-3 {
        fill-rule: evenodd;
      }
    </style>
  </defs>
  <g id="Layer_2" data-name="Layer 2">
    <g id="Layer_1-2" data-name="Layer 1">
      <path class="cls-1" d="M212.86,36.52A124.69,124.69,0,0,0,36.52,212.85l79.56,79.57a12.17,12.17,0,0,0,17.21,0l79.57-79.57A124.69,124.69,0,0,0,212.86,36.52Z"/>
      <path class="cls-2" d="M190.91,192.15a93.66,93.66,0,1,1,0-132.45A93.66,93.66,0,0,1,190.91,192.15Z"/>
      <path class="cls-3" d="M80.83,75.61c1.92-6.54,4.73-11.16,7.9-13.89a12.17,12.17,0,0,1,3.21-2h0a9,9,0,0,1,3.41-.7h0a9,9,0,0,1,3.4.69,12,12,0,0,1,3.21,2c3.17,2.71,6,7.33,7.88,13.86a78.6,78.6,0,0,1,2.71,21.87,12.27,12.27,0,0,1-1.17,4.21,13.41,13.41,0,0,1-2.44,3.58,13.27,13.27,0,0,1-3.56,2.65,17.39,17.39,0,0,1-4.51,1.6h0a1.71,1.71,0,0,0-1,.61,1.78,1.78,0,0,0-.4,1.12l1.06,73h0v.06H90.09v-.06l1.11-73a1.77,1.77,0,0,0-.43-1.16,1.71,1.71,0,0,0-1.06-.59l-.06,0a16.87,16.87,0,0,1-4.43-1.59,13.25,13.25,0,0,1-5.94-6.2,12.56,12.56,0,0,1-1.17-4.21,78.38,78.38,0,0,1,2.72-21.84m62.65,23.77,0,0m24.15,2.26a13.71,13.71,0,0,1-2.45,3.58,13.05,13.05,0,0,1-3.55,2.65,17.46,17.46,0,0,1-4.52,1.6h0a1.71,1.71,0,0,0-1,.61h0a1.8,1.8,0,0,0-.4,1.12h0l1.41,73h0v.06h-11v-.06l1.33-73a1.81,1.81,0,0,0-.42-1.16,1.76,1.76,0,0,0-1.08-.59l0,0a17.21,17.21,0,0,1-4.44-1.59,13.27,13.27,0,0,1-3.48-2.62,13.47,13.47,0,0,1-2.45-3.58,12.56,12.56,0,0,1-1.17-4.21V71.34a4,4,0,0,1,.32-1.58h0a4.24,4.24,0,0,1,.89-1.34h0a4.12,4.12,0,0,1,1.35-.89h0a3.93,3.93,0,0,1,1.57-.32,4.15,4.15,0,0,1,1.57.31h0a4.05,4.05,0,0,1,1.34.88h0a4.12,4.12,0,0,1,.89,1.35h0a4.35,4.35,0,0,1,.3,1.58V97.45a3.72,3.72,0,0,0,.29,1,4,4,0,0,0,.55.9l.17.17a5.4,5.4,0,0,0,.55.48h0a4.58,4.58,0,0,0,.63.41h0a1.77,1.77,0,0,0,2.41-.66h0a3.37,3.37,0,0,0,.17-.42,1.64,1.64,0,0,0,.05-.45h0V71.72h0a4.31,4.31,0,0,1,.31-1.57,4.11,4.11,0,0,1,.88-1.34h0a4,4,0,0,1,1.35-.89h0a4.18,4.18,0,0,1,3.16,0,4.36,4.36,0,0,1,1.34.89h0a4,4,0,0,1,.89,1.34h0a4.4,4.4,0,0,1,.31,1.58v27.2a1.78,1.78,0,0,0,.52,1.25,1.74,1.74,0,0,0,1.24.52,1.78,1.78,0,0,0,.53-.08,1.64,1.64,0,0,0,.48-.23l0,0a5.87,5.87,0,0,0,.63-.44,5.27,5.27,0,0,0,.53-.52,3.12,3.12,0,0,0,.57-.91h0a3.4,3.4,0,0,0,.29-1V71.34a3.93,3.93,0,0,1,.32-1.57h0a3.89,3.89,0,0,1,.89-1.33h0a4.07,4.07,0,0,1,1.35-.89,4,4,0,0,1,1.58-.32,4.15,4.15,0,0,1,1.57.31h0a4,4,0,0,1,1.34.88h0a4.12,4.12,0,0,1,.89,1.35h0a4.15,4.15,0,0,1,.3,1.58V97.45A12.38,12.38,0,0,1,167.66,101.66Z"/>
    </g>
  </g>
</svg>
