<svg xmlns="http://www.w3.org/2000/svg" viewBox="0 0 249.37 295.98">
  <defs>
    <style>
      .cls-1 {
        fill: #ff931e;
      }

      .cls-2 {
        fill: #fff;
      }
    </style>
  </defs>
  <g id="Layer_2" data-name="Layer 2">
    <g id="Layer_1-2" data-name="Layer 1">
      <path class="cls-1" d="M212.86,36.52A124.69,124.69,0,0,0,36.52,212.85l79.56,79.57a12.17,12.17,0,0,0,17.21,0l79.57-79.57A124.69,124.69,0,0,0,212.86,36.52Z"/>
      <path class="cls-2" d="M190.91,192.15a93.66,93.66,0,1,1,0-132.45A93.66,93.66,0,0,1,190.91,192.15Z"/>
      <g>
        <path class="cls-1" d="M188.09,151.8q0-20.07,0-40.12a1.72,1.72,0,0,1,1.31-1.9c2.56-1,5.08-2.07,7.8-3.2l-1.19-.52q-37.8-15.19-75.62-30.33a4.59,4.59,0,0,0-3.1.07Q94.09,85,71,94.37c-10,4-20.07,8.06-30.3,12.17.52.25.77.39,1,.5q38,15.21,76,30.38a4,4,0,0,0,2.76-.11q27.44-10.86,54.81-21.84l3.46-1.37a6.79,6.79,0,0,1,.17,1c0,12.37-1.72,36.55-1.74,36.61-.67,1.73-1.22,3.51-1.8,5.27L170,173.17l8.64,3,4.91-14.42c1.71,5.11,3.25,9.73,4.82,14.45l8.61-3A223.79,223.79,0,0,0,188.09,151.8Z"/>
        <path class="cls-1" d="M77.65,131.32c6.07,2.43,11.84,4.74,17.6,7.07,7.28,2.93,14.57,5.84,21.82,8.84a4.58,4.58,0,0,0,3.8-.06q18.67-7.57,37.39-15c.58-.23,1.16-.44,1.74-.65,0,4.85.53,9.62-.12,14.23-1,7-6.21,11-12.06,14.23-6.44,3.53-13.47,5.09-20.69,5.85a73.87,73.87,0,0,1-27.53-2.06c-6.18-1.7-11.91-4.32-16.62-8.85a16.12,16.12,0,0,1-5.33-12.26C77.69,139,77.65,135.29,77.65,131.32Z"/>
      </g>
    </g>
  </g>
</svg>
