<svg xmlns="http://www.w3.org/2000/svg" viewBox="0 0 249.37 295.98">
  <defs>
    <style>
      .cls-1 {
        fill: #ff931e;
      }

      .cls-2 {
        fill: #fff;
      }
    </style>
  </defs>
  <g id="Layer_2" data-name="Layer 2">
    <g id="Layer_1-2" data-name="Layer 1">
      <path class="cls-1" d="M212.86,36.52A124.69,124.69,0,0,0,36.52,212.85l79.56,79.57a12.17,12.17,0,0,0,17.21,0l79.57-79.57A124.69,124.69,0,0,0,212.86,36.52Z"/>
      <path class="cls-2" d="M190.91,192.15a93.66,93.66,0,1,1,0-132.45A93.66,93.66,0,0,1,190.91,192.15Z"/>
      <path class="cls-1" d="M104.93,72.83a20.64,20.64,0,0,1,8.95-15.1A20.36,20.36,0,0,1,127,54.08c9.41.55,18.12,7.35,19.7,18.76h5.13c6.75,0,11.4,3.89,12.42,10.61,1.07,7.07,2,14.17,2.93,21.25q4,28.79,7.91,57.57c.23,1.67.5,3.34.7,5,.77,6.48-4.39,11.93-11.45,12-9.44.06-18.88,0-28.32,0H87.42c-5.72,0-10.55-3.43-11.54-8.46a18.25,18.25,0,0,1,.16-5.89c1.81-13.59,3.69-27.17,5.55-40.75Q84.34,104.11,87.1,84C88,78,91.58,73.89,97,73a34.27,34.27,0,0,1,4.76-.17C102.76,72.81,103.79,72.83,104.93,72.83Zm4.45-.07h32.87C141.7,64.5,133.81,57.9,125,58.25,116.9,58.58,109.27,65.64,109.38,72.76Zm16.34,41.31a20.63,20.63,0,0,0,16.84-8.36,20,20,0,0,0,4.08-12.21,2,2,0,0,0-1.83-2.15,2,2,0,0,0-2.28,1.86,7.17,7.17,0,0,0-.06,1,16.55,16.55,0,0,1-11.42,14.89,17.05,17.05,0,0,1-18.5-5.59A16.76,16.76,0,0,1,109,93.62c0-1.43-.83-2.27-2-2.29a2.13,2.13,0,0,0-2.12,2.36,11.83,11.83,0,0,0,0,1.19A20.82,20.82,0,0,0,125.72,114.07Z"/>
    </g>
  </g>
</svg>
