<svg xmlns="http://www.w3.org/2000/svg" viewBox="0 0 249.37 295.98">
  <defs>
    <style>
      .cls-1 {
        fill: #ff931e;
      }

      .cls-2 {
        fill: #fff;
      }
    </style>
  </defs>
  <g id="Layer_2" data-name="Layer 2">
    <g id="Layer_1-2" data-name="Layer 1">
      <path class="cls-1" d="M212.86,36.52A124.69,124.69,0,0,0,36.52,212.85l79.56,79.57a12.17,12.17,0,0,0,17.21,0l79.57-79.57A124.69,124.69,0,0,0,212.86,36.52Z"/>
      <path class="cls-2" d="M190.91,192.15a93.66,93.66,0,1,1,0-132.45A93.66,93.66,0,0,1,190.91,192.15Z"/>
      <g>
        <path class="cls-1" d="M87.4,94.45h89.7c.41,0,.83,0,1.24,0,2.87,0,4.44,2.17,3.64,4.94q-4.08,14.1-8.18,28.2-3.11,10.72-6.2,21.45c-.72,2.5-1.87,3.37-4.49,3.37H99.67c-2.87,0-3.93-.8-4.71-3.61q-8.25-29.69-16.47-59.37c-.61-2.21-.6-2.22-2.89-2.22-4.23,0-8.46,0-12.69,0-2.61,0-4.28-1.44-4.26-3.65s1.71-3.63,4.3-3.63h17c2.54,0,3.7.9,4.37,3.31Zm44,21.73h0q-12.21,0-24.41,0a9,9,0,0,0-1.65.08,3.45,3.45,0,0,0-2.84,2.69,3,3,0,0,0,1.22,3.53,6,6,0,0,0,3.06.91c13.34.06,26.67,0,40,0,3.27,0,6.53,0,9.8,0a3.59,3.59,0,0,0,3.68-3.66,3.54,3.54,0,0,0-3.62-3.56c-.37,0-.74,0-1.1,0Zm-.11,21.67h0c5.93,0,11.85,0,17.78,0a3.64,3.64,0,0,0,3.33-1.57,3.43,3.43,0,0,0,.22-3.67,3.63,3.63,0,0,0-3.51-2H122.73c-3.17,0-6.34,0-9.51,0a3.61,3.61,0,0,0-2.89,5.77,3.71,3.71,0,0,0,3.27,1.42Z"/>
        <path class="cls-1" d="M142.19,170.44A10.84,10.84,0,1,1,153,181.37,10.81,10.81,0,0,1,142.19,170.44Z"/>
        <path class="cls-1" d="M120.43,170.58a10.87,10.87,0,1,1-10.8-11A10.88,10.88,0,0,1,120.43,170.58Z"/>
      </g>
    </g>
  </g>
</svg>
